{
  "accessors": [
    {
      "bufferView": 2,
      "componentType": 5126,
      "count": 2,
      "max": [
        0.20613700151443481,
        -0.11354299634695053,
        3.3488869667053223
      ],
      "min": [
        0.20350499451160431,
        -0.11460100114345551,
        3.3469650745391846
      ],
      "type": "VEC3"
    },
    {
      "bufferView": 1,
      "componentType": 5126,
      "count": 2,
      "max": [
        0,
        0
      ],
      "min": [
        0,
        0
      ],
      "type": "VEC2"
    },
    {
      "bufferView": 0,
      "componentType": 5125,
      "count": 2,
      "max": [
        1
      ],
      "min": [
        0
      ],
      "type": "SCALAR"
    },
    {
      "bufferView": 2,
      "byteOffset": 24,
      "componentType": 5126,
      "count": 65532,
      "max": [
        3.4913349151611328,
        0.91452902555465698,
        4.1388111114501953
      ],
      "min": [
        -3.4244580268859863,
        -0.63775402307510376,
        -5.3346319198608398
      ],
      "type": "VEC3"
    },
    {
      "bufferView": 2,
      "byteOffset": 786408,
      "componentType": 5126,
      "count": 65532,
      "max": [
        0.99993014335632324,
        0.99999666213989258,
        0.99998331069946289
      ],
      "min": [
        -0.99996817111968994,
        -0.99998199939727783,
        -0.99995875358581543
      ],
      "type": "VEC3"
    },
    {
      "bufferView": 3,
      "componentType": 5126,
      "count": 65532,
      "max": [
        0.99999582767486572,
        0.99998074769973755,
        0.99999028444290161,
        1
      ],
      "min": [
        -0.99999731779098511,
        -0.99999338388442993,
        -0.99998778104782104,
        -1
      ],
      "type": "VEC4"
    },
    {
      "bufferView": 1,
      "byteOffset": 16,
      "componentType": 5126,
      "count": 65532,
      "max": [
        0.99986898899078369,
        0.99992501735687256
      ],
      "min": [
        0.00052399997366592288,
        0.0002229999954579398
      ],
      "type": "VEC2"
    },
    {
      "bufferView": 0,
      "byteOffset": 8,
      "componentType": 5125,
      "count": 361173,
      "max": [
        65531
      ],
      "min": [
        0
      ],
      "type": "SCALAR"
    },
    {
      "bufferView": 2,
      "byteOffset": 1572792,
      "componentType": 5126,
      "count": 3766,
      "max": [
        1.5480400323867798,
        0.31438499689102173,
        4.1537179946899414
      ],
      "min": [
        -1.3480550050735474,
        -0.61921900510787964,
        3.0358660221099854
      ],
      "type": "VEC3"
    },
    {
      "bufferView": 2,
      "byteOffset": 1617984,
      "componentType": 5126,
      "count": 3766,
      "max": [
        0.99998080730438232,
        0.99984067678451538,
        0.99963384866714478
      ],
      "min": [
        -0.99993622303009033,
        -0.99963992834091187,
        -0.9998929500579834
      ],
      "type": "VEC3"
    },
    {
      "bufferView": 3,
      "byteOffset": 1048512,
      "componentType": 5126,
      "count": 3766,
      "max": [
        0.99985170364379883,
        0.99972367286682129,
        0.9992719292640686,
        1
      ],
      "min": [
        -0.99986642599105835,
        -0.99737560749053955,
        -0.99998313188552856,
        -1
      ],
      "type": "VEC4"
    },
    {
      "bufferView": 1,
      "byteOffset": 524272,
      "componentType": 5126,
      "count": 3766,
      "max": [
        0.99808698892593384,
        0.97403699159622192
      ],
      "min": [
        0.0010110000148415565,
        0.0089809997007250786
      ],
      "type": "VEC2"
    },
    {
      "bufferView": 0,
      "byteOffset": 1444700,
      "componentType": 5125,
      "count": 16575,
      "max": [
        3765
      ],
      "min": [
        0
      ],
      "type": "SCALAR"
    }
  ],
  "asset": {
    "extras": {
      "author": "Cleveland Museum of Art (https://sketchfab.com/clevelandart)",
      "license": "CC-BY-4.0 (http://creativecommons.org/licenses/by/4.0/)",
      "source": "https://sketchfab.com/3d-models/19153382-deity-earring-27834259e0c944af8647b9db1f1f851d",
      "title": "1915.338.2 Deity Earring"
    },
    "generator": "Sketchfab-6.17.1",
    "version": "2.0"
  },
  "bufferViews": [
    {
      "buffer": 0,
      "byteLength": 1511000,
      "byteOffset": 0,
      "name": "floatBufferViews",
      "target": 34963
    },
    {
      "buffer": 0,
      "byteLength": 554400,
      "byteOffset": 1511000,
      "byteStride": 8,
      "name": "floatBufferViews",
      "target": 34962
    },
    {
      "buffer": 0,
      "byteLength": 1663176,
      "byteOffset": 2065400,
      "byteStride": 12,
      "name": "floatBufferViews",
      "target": 34962
    },
    {
      "buffer": 0,
      "byteLength": 1108768,
      "byteOffset": 3728576,
      "byteStride": 16,
      "name": "floatBufferViews",
      "target": 34962
    }
  ],
  "buffers": [
    {
      "byteLength": 4837344,
      "uri": "scene.bin"
    }
  ],
  "images": [
    {
      "uri": "textures/1915.338_Deity_Earring_with_Vishnu_Garuda_and_chepu_100K_baseColor.png"
    },
    {
      "uri": "textures/1915.338_Deity_Earring_with_Vishnu_Garuda_and_chepu_100K_metallicRoughness.png"
    },
    {
      "uri": "textures/1915.338_Deity_Earring_with_Vishnu_Garuda_and_chepu_100K_normal.png"
    }
  ],
  "materials": [
    {
      "doubleSided": true,
      "emissiveFactor": [
        0.10000000000000001,
        0.10000000000000001,
        0.10000000000000001
      ],
      "emissiveTexture": {
        "index": 0,
        "texCoord": 0
      },
      "name": "1915.338_Deity_Earring_with_Vishnu_Garuda_and_chepu_100K",
      "normalTexture": {
        "index": 2,
        "scale": 0.5,
        "texCoord": 0
      },
      "occlusionTexture": {
        "index": 1,
        "strength": 1,
        "texCoord": 0
      },
      "pbrMetallicRoughness": {
        "baseColorFactor": [
          1,
          1,
          1,
          1
        ],
        "baseColorTexture": {
          "index": 0,
          "texCoord": 0
        },
        "metallicFactor": 0.13586128049999999,
        "metallicRoughnessTexture": {
          "index": 1,
          "texCoord": 0
        },
        "roughnessFactor": 1
      }
    }
  ],
  "meshes": [
    {
      "primitives": [
        {
          "attributes": {
            "POSITION": 0,
            "TEXCOORD_0": 1
          },
          "indices": 2,
          "material": 0,
          "mode": 1
        }
      ]
    },
    {
      "primitives": [
        {
          "attributes": {
            "NORMAL": 4,
            "POSITION": 3,
            "TANGENT": 5,
            "TEXCOORD_0": 6
          },
          "indices": 7,
          "material": 0,
          "mode": 4
        }
      ]
    },
    {
      "primitives": [
        {
          "attributes": {
            "NORMAL": 9,
            "POSITION": 8,
            "TANGENT": 10,
            "TEXCOORD_0": 11
          },
          "indices": 12,
          "material": 0,
          "mode": 4
        }
      ]
    }
  ],
  "nodes": [
    {
      "children": [
        1
      ],
      "name": "RootNode (gltf orientation matrix)",
      "rotation": [
        -0.70710678118654746,
        -0,
        -0,
        0.70710678118654757
      ]
    },
    {
      "children": [
        2
      ],
      "name": "RootNode (model correction matrix)"
    },
    {
      "children": [
        3,
        4,
        5
      ],
      "name": "Deity Earring with Vishnu Garuda and chepu 100K.obj.cleaner.materialmerger.gles"
    },
    {
      "mesh": 0,
      "name": ""
    },
    {
      "mesh": 1,
      "name": ""
    },
    {
      "mesh": 2,
      "name": ""
    }
  ],
  "samplers": [
    {
      "magFilter": 9729,
      "minFilter": 9987,
      "wrapS": 10497,
      "wrapT": 10497
    }
  ],
  "scene": 0,
  "scenes": [
    {
      "name": "OSG_Scene",
      "nodes": [
        0
      ]
    }
  ],
  "textures": [
    {
      "sampler": 0,
      "source": 0
    },
    {
      "sampler": 0,
      "source": 1
    },
    {
      "sampler": 0,
      "source": 2
    }
  ]
}

