{
  "accessors": [
    {
      "bufferView": 2,
      "componentType": 5126,
      "count": 17836,
      "max": [
        2.4394609928131104,
        3.3969941139221191,
        5.0151820182800293
      ],
      "min": [
        -1.9385010004043579,
        -2.0086719989776611,
        -0.047040998935699463
      ],
      "type": "VEC3"
    },
    {
      "bufferView": 2,
      "byteOffset": 214032,
      "componentType": 5126,
      "count": 17836,
      "max": [
        0.99999809265136719,
        0.99983233213424683,
        0.99943482875823975
      ],
      "min": [
        -1,
        -0.99999988079071045,
        -0.99981468915939331
      ],
      "type": "VEC3"
    },
    {
      "bufferView": 3,
      "componentType": 5126,
      "count": 17836,
      "max": [
        1,
        0.99999982118606567,
        0.99439674615859985,
        1
      ],
      "min": [
        -1,
        -0.99998420476913452,
        -0.98445379734039307,
        -1
      ],
      "type": "VEC4"
    },
    {
      "bufferView": 1,
      "componentType": 5126,
      "count": 17836,
      "max": [
        0.99500000476837158,
        0.91176801919937134
      ],
      "min": [
        0.004999999888241291,
        0.004999999888241291
      ],
      "type": "VEC2"
    },
    {
      "bufferView": 0,
      "componentType": 5125,
      "count": 92160,
      "max": [
        17835
      ],
      "min": [
        0
      ],
      "type": "SCALAR"
    }
  ],
  "asset": {
    "extras": {
      "author": "CatAlex3D (https://sketchfab.com/CatAlex)",
      "license": "CC-BY-4.0 (http://creativecommons.org/licenses/by/4.0/)",
      "source": "https://sketchfab.com/3d-models/golden-earrings-ea7a893a9bb04f9ea50cf51f584f1470",
      "title": "Golden earrings"
    },
    "generator": "Sketchfab-5.94.0",
    "version": "2.0"
  },
  "bufferViews": [
    {
      "buffer": 0,
      "byteLength": 368640,
      "byteOffset": 0,
      "name": "floatBufferViews",
      "target": 34963
    },
    {
      "buffer": 0,
      "byteLength": 142688,
      "byteOffset": 368640,
      "byteStride": 8,
      "name": "floatBufferViews",
      "target": 34962
    },
    {
      "buffer": 0,
      "byteLength": 428064,
      "byteOffset": 511328,
      "byteStride": 12,
      "name": "floatBufferViews",
      "target": 34962
    },
    {
      "buffer": 0,
      "byteLength": 285376,
      "byteOffset": 939392,
      "byteStride": 16,
      "name": "floatBufferViews",
      "target": 34962
    }
  ],
  "buffers": [
    {
      "byteLength": 1224768,
      "uri": "scene.bin"
    }
  ],
  "images": [
    {
      "uri": "textures/Gold_metallicRoughness.png"
    }
  ],
  "materials": [
    {
      "doubleSided": true,
      "emissiveFactor": [
        0,
        0,
        0
      ],
      "name": "Gold",
      "pbrMetallicRoughness": {
        "baseColorFactor": [
          1,
          0.64922100000000005,
          0.075634999999999994,
          1
        ],
        "metallicFactor": 1,
        "metallicRoughnessTexture": {
          "index": 0,
          "texCoord": 0
        },
        "roughnessFactor": 0.59999999999999998
      }
    }
  ],
  "meshes": [
    {
      "primitives": [
        {
          "attributes": {
            "NORMAL": 1,
            "POSITION": 0,
            "TANGENT": 2,
            "TEXCOORD_0": 3
          },
          "indices": 4,
          "material": 0,
          "mode": 4
        }
      ]
    }
  ],
  "nodes": [
    {
      "children": [
        1
      ],
      "name": "RootNode (gltf orientation matrix)",
      "rotation": [
        -0.70710678118654746,
        -0,
        -0,
        0.70710678118654757
      ]
    },
    {
      "children": [
        2
      ],
      "name": "RootNode (model correction matrix)"
    },
    {
      "children": [
        3
      ],
      "name": "Earring.obj.cleaner.materialmerger.gles"
    },
    {
      "mesh": 0,
      "name": ""
    }
  ],
  "samplers": [
    {
      "magFilter": 9729,
      "minFilter": 9987,
      "wrapS": 10497,
      "wrapT": 10497
    }
  ],
  "scene": 0,
  "scenes": [
    {
      "name": "OSG_Scene",
      "nodes": [
        0
      ]
    }
  ],
  "textures": [
    {
      "sampler": 0,
      "source": 0
    }
  ]
}

