{
  "accessors": [
    {
      "bufferView": 1,
      "componentType": 5126,
      "count": 56298,
      "max": [
        11.918657302856445,
        8.1534404754638672,
        0.61479949951171875
      ],
      "min": [
        0.88225746154785156,
        -1.234560489654541,
        -1.6519002914428711
      ],
      "type": "VEC3"
    },
    {
      "bufferView": 1,
      "byteOffset": 675576,
      "componentType": 5126,
      "count": 56298,
      "max": [
        0.99995547533035278,
        0.99932408332824707,
        0.99987447261810303
      ],
      "min": [
        -0.99997633695602417,
        -0.99998867511749268,
        -0.99995625019073486
      ],
      "type": "VEC3"
    },
    {
      "bufferView": 2,
      "componentType": 5126,
      "count": 56298,
      "max": [
        1,
        0.99997591972351074,
        0.97823888063430786,
        1
      ],
      "min": [
        -0.9999842643737793,
        -0.99994796514511108,
        -0.99632561206817627,
        -1
      ],
      "type": "VEC4"
    },
    {
      "bufferView": 0,
      "componentType": 5125,
      "count": 56298,
      "max": [
        56297
      ],
      "min": [
        0
      ],
      "type": "SCALAR"
    },
    {
      "bufferView": 1,
      "byteOffset": 1351152,
      "componentType": 5126,
      "count": 325,
      "max": [
        0.64295732975006104,
        0.57383978366851807,
        0.041201591491699219
      ],
      "min": [
        -0.19634205102920532,
        -0.26906067132949829,
        -0.20279788970947266
      ],
      "type": "VEC3"
    },
    {
      "bufferView": 1,
      "byteOffset": 1355052,
      "componentType": 5126,
      "count": 325,
      "max": [
        0.99344527721405029,
        0.99765521287918091,
        0.99458324909210205
      ],
      "min": [
        -0.9934883713722229,
        -0.99765282869338989,
        -0.99453204870223999
      ],
      "type": "VEC3"
    },
    {
      "bufferView": 2,
      "byteOffset": 900768,
      "componentType": 5126,
      "count": 325,
      "max": [
        0.99566811323165894,
        0.99868446588516235,
        0.99092948436737061,
        1
      ],
      "min": [
        -0.99092727899551392,
        -0.99614042043685913,
        -0.99775803089141846,
        1
      ],
      "type": "VEC4"
    },
    {
      "bufferView": 0,
      "byteOffset": 225192,
      "componentType": 5125,
      "count": 1719,
      "max": [
        324
      ],
      "min": [
        0
      ],
      "type": "SCALAR"
    },
    {
      "bufferView": 1,
      "byteOffset": 1358952,
      "componentType": 5126,
      "count": 7440,
      "max": [
        12.573858261108398,
        8.6977396011352539,
        0.33970069885253906
      ],
      "min": [
        0.054457012563943863,
        -1.8319615125656128,
        -1.9845991134643555
      ],
      "type": "VEC3"
    },
    {
      "bufferView": 1,
      "byteOffset": 1448232,
      "componentType": 5126,
      "count": 7440,
      "max": [
        0.88362115621566772,
        0.92113947868347168,
        0.97832733392715454
      ],
      "min": [
        -0.87267011404037476,
        -0.9137381911277771,
        -0.97841018438339233
      ],
      "type": "VEC3"
    },
    {
      "bufferView": 2,
      "byteOffset": 905968,
      "componentType": 5126,
      "count": 7440,
      "max": [
        0.97280371189117432,
        0.9471747875213623,
        0.92673009634017944,
        1
      ],
      "min": [
        -0.97291070222854614,
        -0.94720321893692017,
        -0.93311947584152222,
        1
      ],
      "type": "VEC4"
    },
    {
      "bufferView": 0,
      "byteOffset": 232068,
      "componentType": 5125,
      "count": 7440,
      "max": [
        7439
      ],
      "min": [
        0
      ],
      "type": "SCALAR"
    },
    {
      "bufferView": 1,
      "byteOffset": 1537512,
      "componentType": 5126,
      "count": 725,
      "max": [
        0.53304958343505859,
        0.25728273391723633,
        1.0262031555175781
      ],
      "min": [
        -4.3213505744934082,
        -2.3404173851013184,
        -1.681696891784668
      ],
      "type": "VEC3"
    },
    {
      "bufferView": 1,
      "byteOffset": 1546212,
      "componentType": 5126,
      "count": 725,
      "max": [
        0.99141138792037964,
        0.99545937776565552,
        0.9601399302482605
      ],
      "min": [
        -0.99372410774230957,
        -0.99483925104141235,
        -0.95928066968917847
      ],
      "type": "VEC3"
    },
    {
      "bufferView": 2,
      "byteOffset": 1025008,
      "componentType": 5126,
      "count": 725,
      "max": [
        0.97179365158081055,
        0.99480700492858887,
        0.99199682474136353,
        1
      ],
      "min": [
        -0.99472838640213013,
        -0.9778515100479126,
        -0.99202007055282593,
        -1
      ],
      "type": "VEC4"
    },
    {
      "bufferView": 0,
      "byteOffset": 261828,
      "componentType": 5125,
      "count": 3825,
      "max": [
        724
      ],
      "min": [
        0
      ],
      "type": "SCALAR"
    }
  ],
  "asset": {
    "extras": {
      "author": "DineshThennarasan (https://sketchfab.com/dineshthennarasan)",
      "license": "CC-BY-4.0 (http://creativecommons.org/licenses/by/4.0/)",
      "source": "https://sketchfab.com/models/432629653a2f4a1ebf2b97c470dc20c5",
      "title": "Oval Shape Meenakari jaipuri Bali Earrings"
    },
    "generator": "Sketchfab-3.18.7",
    "version": "2.0"
  },
  "bufferViews": [
    {
      "buffer": 0,
      "byteLength": 277128,
      "byteOffset": 0,
      "name": "floatBufferViews",
      "target": 34963
    },
    {
      "buffer": 0,
      "byteLength": 1554912,
      "byteOffset": 277128,
      "byteStride": 12,
      "name": "floatBufferViews",
      "target": 34962
    },
    {
      "buffer": 0,
      "byteLength": 1036608,
      "byteOffset": 1832040,
      "byteStride": 16,
      "name": "floatBufferViews",
      "target": 34962
    }
  ],
  "buffers": [
    {
      "byteLength": 2868648,
      "uri": "scene.bin"
    }
  ],
  "extensionsRequired": [
    "KHR_materials_pbrSpecularGlossiness"
  ],
  "extensionsUsed": [
    "KHR_materials_pbrSpecularGlossiness"
  ],
  "materials": [
    {
      "doubleSided": true,
      "emissiveFactor": [
        0,
        0,
        0
      ],
      "extensions": {
        "KHR_materials_pbrSpecularGlossiness": {
          "diffuseFactor": [
            0,
            0,
            0,
            1
          ],
          "glossinessFactor": 0.95293445119999998,
          "specularFactor": [
            0.2122307574,
            0.0069954101999999997,
            0.50288645799999998
          ]
        }
      },
      "name": "wire_088088225"
    },
    {
      "doubleSided": true,
      "emissiveFactor": [
        0,
        0,
        0
      ],
      "extensions": {
        "KHR_materials_pbrSpecularGlossiness": {
          "diffuseFactor": [
            0,
            0,
            0,
            1
          ],
          "glossinessFactor": 1,
          "specularFactor": [
            0.93011085839999996,
            0.7912979403,
            0.097587347099999999
          ]
        }
      },
      "name": "wire_088144225"
    },
    {
      "doubleSided": true,
      "emissiveFactor": [
        0,
        0,
        0
      ],
      "extensions": {
        "KHR_materials_pbrSpecularGlossiness": {
          "diffuseFactor": [
            0,
            0,
            0,
            1
          ],
          "glossinessFactor": 1,
          "specularFactor": [
            0.93678503319999995,
            0.79609640199999998,
            0.099447101900000001
          ]
        }
      },
      "name": "Material.004"
    }
  ],
  "meshes": [
    {
      "name": "Tube02.002_wire_088088225_0",
      "primitives": [
        {
          "attributes": {
            "NORMAL": 1,
            "POSITION": 0,
            "TANGENT": 2
          },
          "indices": 3,
          "material": 0,
          "mode": 4
        }
      ]
    },
    {
      "name": "Tube02.002_wire_088144225_0",
      "primitives": [
        {
          "attributes": {
            "NORMAL": 5,
            "POSITION": 4,
            "TANGENT": 6
          },
          "indices": 7,
          "material": 1,
          "mode": 4
        }
      ]
    },
    {
      "name": "Tube02.002_Material.004_0",
      "primitives": [
        {
          "attributes": {
            "NORMAL": 9,
            "POSITION": 8,
            "TANGENT": 10
          },
          "indices": 11,
          "material": 2,
          "mode": 4
        }
      ]
    },
    {
      "name": "Line09.001_wire_088144225_0",
      "primitives": [
        {
          "attributes": {
            "NORMAL": 13,
            "POSITION": 12,
            "TANGENT": 14
          },
          "indices": 15,
          "material": 1,
          "mode": 4
        }
      ]
    }
  ],
  "nodes": [
    {
      "children": [
        1
      ],
      "name": "RootNode (gltf orientation matrix)",
      "rotation": [
        -0.70710678118654746,
        -0,
        -0,
        0.70710678118654757
      ]
    },
    {
      "children": [
        2
      ],
      "name": "RootNode (model correction matrix)"
    },
    {
      "children": [
        3
      ],
      "matrix": [
        1,
        0,
        0,
        0,
        0,
        0,
        1,
        0,
        0,
        -1,
        0,
        0,
        0,
        0,
        0,
        1
      ],
      "name": "4e01f49de03c4fd4a7901f9425edef34.fbx"
    },
    {
      "children": [
        4,
        8
      ],
      "name": "RootNode"
    },
    {
      "children": [
        5,
        6,
        7
      ],
      "matrix": [
        -0.01566061891034698,
        -8.8030172630258914,
        4.7441165470383933,
        0,
        -0.017601449268677127,
        -4.7440907501692342,
        -8.8030274987155614,
        0,
        9.9999712929897679,
        -0.022136416453114177,
        -0.0080650456760509148,
        0,
        91.70318603515625,
        -16.306703567504883,
        54.791225433349609,
        1
      ],
      "name": "Tube02.002"
    },
    {
      "mesh": 0,
      "name": "Tube02.002_wire_088088225_0"
    },
    {
      "mesh": 1,
      "name": "Tube02.002_wire_088144225_0"
    },
    {
      "mesh": 2,
      "name": "Tube02.002_Material.004_0"
    },
    {
      "children": [
        9
      ],
      "matrix": [
        -1.4109342671986269e-06,
        -8.660252772898783,
        5.0000021909492167,
        0,
        -2.4438105505897312e-06,
        -5.0000021909488179,
        -8.660252772898783,
        0,
        9.9999999999996021,
        -2.4438105505897312e-06,
        -1.4109342671986269e-06,
        0,
        92.225990295410156,
        -17.661199569702148,
        54.656654357910156,
        1
      ],
      "name": "Line09.001"
    },
    {
      "mesh": 3,
      "name": "Line09.001_wire_088144225_0"
    }
  ],
  "scene": 0,
  "scenes": [
    {
      "name": "OSG_Scene",
      "nodes": [
        0
      ]
    }
  ]
}

